# Blender v2.79 (sub 0) OBJ File: ''
# www.blender.org
mtllib cylinder.mtl
o cylinder
v -0.003951 1.999994 0.002636
v 0.703231 2.000460 0.709668
v 0.827577 2.000906 0.558118
v -0.000000 0.000000 -0.000000
v 0.831528 0.000911 0.555481
v 0.707182 0.000466 0.707032
v 0.919968 2.001316 0.385222
v 0.923919 0.001321 0.382585
v 0.976854 2.001675 0.197624
v 0.980805 0.001680 0.194986
v 0.996047 2.001970 0.002531
v 0.999997 0.001976 -0.000107
v 0.976811 2.002190 -0.192557
v 0.980763 0.002195 -0.195195
v 0.919887 2.002324 -0.380144
v 0.923836 0.002329 -0.382781
v 0.827458 2.002369 -0.553021
v 0.831408 0.002375 -0.555657
v 0.703079 2.002323 -0.704544
v 0.707030 0.002329 -0.707180
v 0.551529 2.002187 -0.828891
v 0.555480 0.002193 -0.831527
v 0.378633 2.001967 -0.921283
v 0.382584 0.001974 -0.923918
v 0.191034 2.001673 -0.978169
v 0.194986 0.001677 -0.980805
v -0.004058 2.001312 -0.997364
v -0.000106 0.001318 -0.999999
v -0.199146 2.000901 -0.978129
v -0.195193 0.000907 -0.980764
v -0.386732 2.000456 -0.921203
v -0.382780 0.000461 -0.923840
v -0.559610 1.999993 -0.828775
v -0.555656 -0.000002 -0.831412
v -0.711132 1.999529 -0.704396
v -0.707179 -0.000466 -0.707034
v -0.835479 1.999083 -0.552847
v -0.831525 -0.000911 -0.555485
v -0.927870 1.998673 -0.379950
v -0.923917 -0.001321 -0.382590
v -0.984755 1.998314 -0.192351
v -0.980803 -0.001680 -0.194991
v -1.003949 1.998019 0.002740
v -0.999998 -0.001976 0.000101
v -0.984713 1.997799 0.197829
v -0.980763 -0.002195 0.195189
v -0.927787 1.997665 0.385416
v -0.923839 -0.002330 0.382775
v -0.835358 1.997620 0.558293
v -0.831411 -0.002375 0.555652
v -0.710980 1.997666 0.709817
v -0.707034 -0.002329 0.707176
v -0.559430 1.997802 0.834163
v -0.555485 -0.002193 0.831524
v -0.386534 1.998021 0.926555
v -0.382589 -0.001973 0.923916
v -0.198935 1.998317 0.983441
v -0.194991 -0.001677 0.980804
v -0.003842 1.998677 1.002634
v 0.000100 -0.001317 1.000000
v 0.191246 1.999088 0.983399
v 0.195188 -0.000906 0.980765
v 0.378833 1.999534 0.926473
v 0.382774 -0.000461 0.923842
v 0.551709 1.999997 0.834046
v 0.555651 0.000002 0.831416
vn -0.0020 1.0000 0.0013
vn 0.0020 -1.0000 -0.0013
vn 0.6345 0.0002 0.7729
vn 0.4715 -0.0002 0.8819
vn 0.2904 -0.0007 0.9569
vn 0.0981 -0.0011 0.9952
vn -0.0979 -0.0015 0.9952
vn -0.2902 -0.0018 0.9570
vn -0.4713 -0.0021 0.8820
vn -0.6343 -0.0023 0.7731
vn -0.7729 -0.0024 0.6345
vn -0.8819 -0.0024 0.4715
vn -0.9569 -0.0023 0.2904
vn -0.9952 -0.0021 0.0981
vn -0.9952 -0.0018 -0.0979
vn -0.9570 -0.0015 -0.2902
vn -0.8820 -0.0011 -0.4713
vn -0.7731 -0.0007 -0.6343
vn -0.6345 -0.0002 -0.7729
vn -0.4715 0.0002 -0.8819
vn -0.2904 0.0007 -0.9569
vn -0.0981 0.0011 -0.9952
vn 0.0979 0.0015 -0.9952
vn 0.2902 0.0018 -0.9570
vn 0.4713 0.0021 -0.8820
vn 0.6343 0.0023 -0.7731
vn 0.7729 0.0024 -0.6345
vn 0.8819 0.0024 -0.4715
vn 0.9569 0.0023 -0.2904
vn 0.9952 0.0021 -0.0981
vn 0.9952 0.0018 0.0979
vn 0.9570 0.0015 0.2902
vn 0.8820 0.0011 0.4713
vn 0.7731 0.0007 0.6343
usemtl (null)
s 1
f 1//1 2//1 3//1
f 4//2 5//2 6//2
f 1//1 3//1 7//1
f 4//2 8//2 5//2
f 1//1 7//1 9//1
f 4//2 10//2 8//2
f 1//1 9//1 11//1
f 4//2 12//2 10//2
f 1//1 11//1 13//1
f 4//2 14//2 12//2
f 1//1 13//1 15//1
f 4//2 16//2 14//2
f 1//1 15//1 17//1
f 4//2 18//2 16//2
f 1//1 17//1 19//1
f 4//2 20//2 18//2
f 1//1 19//1 21//1
f 4//2 22//2 20//2
f 1//1 21//1 23//1
f 4//2 24//2 22//2
f 1//1 23//1 25//1
f 4//2 26//2 24//2
f 1//1 25//1 27//1
f 4//2 28//2 26//2
f 1//1 27//1 29//1
f 4//2 30//2 28//2
f 1//1 29//1 31//1
f 4//2 32//2 30//2
f 1//1 31//1 33//1
f 4//2 34//2 32//2
f 1//1 33//1 35//1
f 4//2 36//2 34//2
f 1//1 35//1 37//1
f 4//2 38//2 36//2
f 1//1 37//1 39//1
f 4//2 40//2 38//2
f 1//1 39//1 41//1
f 4//2 42//2 40//2
f 1//1 41//1 43//1
f 4//2 44//2 42//2
f 1//1 43//1 45//1
f 4//2 46//2 44//2
f 1//1 45//1 47//1
f 4//2 48//2 46//2
f 1//1 47//1 49//1
f 4//2 50//2 48//2
f 1//1 49//1 51//1
f 4//2 52//2 50//2
f 1//1 51//1 53//1
f 4//2 54//2 52//2
f 1//1 53//1 55//1
f 4//2 56//2 54//2
f 1//1 55//1 57//1
f 4//2 58//2 56//2
f 1//1 57//1 59//1
f 4//2 60//2 58//2
f 1//1 59//1 61//1
f 4//2 62//2 60//2
f 1//1 61//1 63//1
f 4//2 64//2 62//2
f 1//1 63//1 65//1
f 4//2 66//2 64//2
f 65//1 2//1 1//1
f 4//2 6//2 66//2
f 6//3 2//3 65//3
f 6//3 65//3 66//3
f 63//4 64//4 66//4
f 63//4 66//4 65//4
f 61//5 62//5 64//5
f 61//5 64//5 63//5
f 59//6 60//6 62//6
f 59//6 62//6 61//6
f 57//7 58//7 60//7
f 57//7 60//7 59//7
f 55//8 56//8 58//8
f 55//8 58//8 57//8
f 53//9 54//9 56//9
f 53//9 56//9 55//9
f 51//10 52//10 54//10
f 51//10 54//10 53//10
f 49//11 50//11 52//11
f 49//11 52//11 51//11
f 47//12 48//12 50//12
f 47//12 50//12 49//12
f 45//13 46//13 48//13
f 45//13 48//13 47//13
f 43//14 44//14 46//14
f 43//14 46//14 45//14
f 41//15 42//15 44//15
f 41//15 44//15 43//15
f 39//16 40//16 42//16
f 39//16 42//16 41//16
f 37//17 38//17 40//17
f 37//17 40//17 39//17
f 35//18 36//18 38//18
f 35//18 38//18 37//18
f 33//19 34//19 36//19
f 33//19 36//19 35//19
f 31//20 32//20 34//20
f 31//20 34//20 33//20
f 29//21 30//21 32//21
f 29//21 32//21 31//21
f 27//22 28//22 30//22
f 27//22 30//22 29//22
f 25//23 26//23 28//23
f 25//23 28//23 27//23
f 23//24 24//24 26//24
f 23//24 26//24 25//24
f 21//25 22//25 24//25
f 21//25 24//25 23//25
f 19//26 20//26 22//26
f 19//26 22//26 21//26
f 17//27 18//27 19//27
f 18//27 20//27 19//27
f 15//28 16//28 17//28
f 16//28 18//28 17//28
f 13//29 14//29 15//29
f 14//29 16//29 15//29
f 11//30 12//30 13//30
f 12//30 14//30 13//30
f 9//31 10//31 11//31
f 10//31 12//31 11//31
f 7//32 8//32 9//32
f 8//32 10//32 9//32
f 3//33 5//33 7//33
f 5//33 8//33 7//33
f 2//34 6//34 3//34
f 6//34 5//34 3//34
